<?xml version="1.0" encoding="utf-8"?>
<!DOCTYPE svg PUBLIC "-//W3C//DTD SVG 1.1//EN" "http://www.w3.org/Graphics/SVG/1.1/DTD/svg11.dtd" [
  
  <!ENTITY st1 "fill:#333333;">
  <!ENTITY st2 "fill:#E7D2D5;">
  <!ENTITY st3 "fill:#3A9D23;"> <!-- заменено с #A23938 -->
  <!ENTITY st4 "fill:#2B7D29;"> <!-- заменено с #7D2B29 -->
]>
<svg version="1.1" id="Layer_4" xmlns="http://www.w3.org/2000/svg" xmlns:xlink="http://www.w3.org/1999/xlink"
  x="0px" y="0px" width="500px" height="500px" viewBox="0 0 500 500"
  style="enable-background:new 0 0 500 500;" xml:space="preserve">
  <g>
    <g>
          </g>
    <g>
      <g>
        <!-- Удалены path с надписью Loginom -->
      </g>
      <g>
        <polygon style="&st2;" points="300.4005432,213.0250702 217.7131042,241.6938934 210.5130615,213.4938202 
          200.7817993,212.5187836 199.2630615,184.4500885 236.3318481,173.2751617 268.7880859,174.868866 283.3756409,170.4626617 
          289.3755493,175.8812103 288.663147,186.6999969 285.2506409,194.8001251"/>
        <polygon style="&st1;" points="213.8693848,226.6188202 197.8568115,236.275116 184.0380707,272.8188477 
          178.2818146,277.6750183 156.2505646,277.6750183 156.2505646,256.2626648 178.2818146,256.2626648 178.2818146,264.4188843 
          181.7693939,262.7125549 194.3319092,233.8375244 213.1944122,223.9937744"/>
        <polygon style="&st1;" points="268.7880859,174.868866 264.4193115,199.712616 234.4943848,208.7312469 
          247.338089,173.818985"/>
        <polygon style="&st1;" points="317.6881104,193.3938751 314.0318298,208.3000336 300.4005432,213.0250702 
          285.2506409,194.8001251 288.663147,186.6999969 289.3755493,175.8812103 291.4005737,175.9750519"/>
        <polygon style="&st3;" points="324.1381531,173.6313324 316.881897,134.443985 300.1193848,117.2313766 
          297.4579468,116.6317749 297.6819153,114.4374466 292.151123,113.1434784 300.5318604,106.4686584 285.1005859,100.8624802 
          281.763092,106.956192 281.8006287,102.6625748 265.5819397,100 268.7131958,107.6501312 261.1381226,105.8875656 
          260.3100586,108.1369781 247.4694061,105.2125626 209.8568878,123.3064117 188.3506622,165.5499573 161.2193909,182.5563354 
          192.9631042,186.3438263 199.2630615,184.4500732 236.3318329,173.2751465 268.7880554,174.8688354 283.3756409,170.4626312 
          289.3755188,175.8811798 291.4006348,175.9750824 319.263092,194.4439697 343.7505493,197.2377167"/>
        <polygon style="&st3;" points="323.1255798,205.1501312 206.2757111,245.6501312 193.7506104,287.4999695 
          287.7443237,287.4999695 343.7505493,250.0000305"/>
        <polygon style="&st4;" points="236.3318481,173.2751617 199.2630615,184.4500885 192.963089,186.3438568 
          161.2193604,182.5563202 188.3506622,165.549942"/>
        <polygon style="&st4;" points="343.7505493,197.2377167 319.2630615,194.443985 291.4005737,175.9750519 
          324.1381226,173.6313019"/>
        <polygon style="&st4;" points="297.6818848,114.4374313 291.4005737,175.9750519 289.3755493,175.8812103 
          283.3756409,170.4626617 268.7880859,174.868866 236.3318481,173.2751617 261.1380615,105.8875504"/>
        <polygon style="&st4;" points="343.7505493,250 287.7442932,287.5 193.7505493,287.5 339.9255676,241.6751251"/>
      </g>
    </g>
  </g>
  <text x="250" y="480" font-family="Arial" font-size="64" text-anchor="middle" fill="#333333">WEB-заказы</text>
</svg>
